<svg xmlns="http://www.w3.org/2000/svg" viewBox="0 0 1600 900">
  <defs>
    <linearGradient id="g1" x1="0" y1="0" x2="1" y2="0">
      <stop offset="0" stop-color="#ffffff" stop-opacity="0"/>
      <stop offset="0.5" stop-color="#94a3b8" stop-opacity="0.55"/>
      <stop offset="1" stop-color="#ffffff" stop-opacity="0"/>
    </linearGradient>
    <linearGradient id="g2" x1="0" y1="0" x2="0" y2="1">
      <stop offset="0" stop-color="#1e293b" stop-opacity="0.10"/>
      <stop offset="1" stop-color="#1e293b" stop-opacity="0"/>
    </linearGradient>
    <filter id="soft" x="-20%" y="-20%" width="140%" height="140%">
      <feGaussianBlur stdDeviation="0.6"/>
    </filter>
  </defs>

  <rect width="1600" height="900" fill="#ffffff"/>
  <rect width="1600" height="900" fill="url(#g2)"/>

  <!-- CAD grid -->
  <g stroke="#0f172a" stroke-opacity="0.06" stroke-width="1">
    <path d="M0 120H1600M0 240H1600M0 360H1600M0 480H1600M0 600H1600M0 720H1600M0 840H1600"/>
    <path d="M160 0V900M320 0V900M480 0V900M640 0V900M800 0V900M960 0V900M1120 0V900M1280 0V900M1440 0V900"/>
  </g>

  <!-- Vault container outline -->
  <g fill="none" stroke="#1e3a8a" stroke-opacity="0.35" stroke-width="2">
    <path d="M310 190h980v520H310z"/>
    <path d="M340 220h920v460H340z"/>
    <path d="M370 250h860v400H370z"/>
  </g>

  <!-- Corner anchors -->
  <g fill="none" stroke="#334155" stroke-opacity="0.55" stroke-width="2">
    <path d="M290 190h60M310 170v60"/>
    <path d="M1310 190h-60M1290 170v60"/>
    <path d="M290 710h60M310 730v-60"/>
    <path d="M1310 710h-60M1290 730v-60"/>
  </g>

  <!-- Lock core -->
  <g fill="none" stroke="#0f172a" stroke-opacity="0.25" stroke-width="2">
    <circle cx="800" cy="450" r="150"/>
    <circle cx="800" cy="450" r="110"/>
    <circle cx="800" cy="450" r="70"/>
    <path d="M800 300V600"/>
    <path d="M650 450H950"/>
    <path d="M705 355l190 190"/>
    <path d="M895 355L705 545"/>
  </g>

  <!-- Key slots -->
  <g fill="none" stroke="#1e40af" stroke-opacity="0.30" stroke-width="2">
    <path d="M800 385c20 0 36 16 36 36s-16 36-36 36-36-16-36-36 16-36 36-36z"/>
    <path d="M800 457v58"/>
    <path d="M778 515h44"/>
  </g>

  <!-- Scan rails -->
  <g fill="none" stroke="url(#g1)" stroke-width="2">
    <path d="M250 320H1350"/>
    <path d="M250 580H1350"/>
  </g>

  <!-- Technical callouts -->
  <g fill="none" stroke="#0f172a" stroke-opacity="0.18" stroke-width="2">
    <path d="M1220 260h140v80h-140z"/>
    <path d="M240 560h180v100H240z"/>
  </g>

  <g fill="#0f172a" fill-opacity="0.35" font-family="ui-monospace, SFMono-Regular, Menlo, Monaco, Consolas, 'Liberation Mono', 'Courier New', monospace" font-size="12" letter-spacing="2">
    <text x="1240" y="288">ON-CHAIN</text>
    <text x="1240" y="308">VAULT</text>
    <text x="260" y="590">AUDIT</text>
    <text x="260" y="610">TRACE</text>
  </g>

  <!-- Micro details -->
  <g stroke="#1e293b" stroke-opacity="0.12" stroke-width="1" filter="url(#soft)">
    <path d="M360 220l60-60M1240 680l60 60M370 650h860"/>
    <path d="M520 250v400M1080 250v400"/>
    <path d="M340 450h920"/>
  </g>
</svg>

